<?xml version="1.0" standalone="no"?>
<!DOCTYPE svg PUBLIC "-//W3C//DTD SVG 20010904//EN"
 "http://www.w3.org/TR/2001/REC-SVG-20010904/DTD/svg10.dtd">
<svg version="1.0" xmlns="http://www.w3.org/2000/svg"
 width="1200.000000pt" height="1299.000000pt" viewBox="0 0 1200.000000 1299.000000"
 preserveAspectRatio="xMidYMid meet">

<g transform="translate(0.000000,1299.000000) scale(0.100000,-0.100000)"
fill="#000000" stroke="none">
<path d="M9058 12983 l-68 -4 0 -154 0 -155 220 0 220 0 0 160 0 160 -152 -2
c-84 -1 -183 -3 -220 -5z"/>
<path d="M5819 12925 c-96 -18 -169 -45 -244 -91 -128 -77 -191 -149 -231
-264 -29 -84 -26 -251 5 -348 21 -64 31 -79 85 -128 96 -88 238 -151 496 -223
313 -88 293 -80 286 -113 -21 -105 -97 -196 -187 -222 -135 -41 -308 -4 -618
130 -69 30 -127 52 -129 49 -6 -6 47 -398 56 -406 6 -6 242 -55 356 -74 92
-15 248 -22 336 -14 128 11 198 30 307 85 187 93 286 253 286 464 0 133 -52
261 -137 332 -65 54 -282 138 -526 203 -206 55 -230 64 -230 85 0 11 9 43 20
73 51 135 183 191 376 158 73 -13 297 -85 389 -126 l55 -24 0 183 0 184 -81
22 c-257 69 -517 94 -670 65z"/>
<path d="M216 12898 c-3 -13 -6 -81 -6 -153 l0 -130 179 3 178 4 14 -164 c8
-90 14 -262 13 -383 0 -188 -4 -235 -23 -325 -32 -148 -33 -151 -116 -179 -60
-20 -98 -25 -257 -30 -103 -4 -190 -9 -192 -12 -3 -2 3 -72 12 -154 l18 -150
239 0 c267 0 346 11 462 66 81 39 166 116 197 182 28 59 60 218 77 382 7 75 8
262 3 581 l-7 471 -96 7 c-53 3 -229 6 -392 6 l-297 0 -6 -22z"/>
<path d="M11185 12716 l-7 -144 -94 -87 c-52 -47 -94 -90 -94 -95 0 -5 42 -68
94 -141 l93 -131 7 -207 c9 -286 25 -552 36 -577 7 -17 38 -29 172 -64 183
-48 340 -63 422 -40 88 24 147 100 161 206 l6 50 -173 18 c-95 10 -178 22
-185 28 -18 15 -51 124 -63 208 -7 48 -8 151 -4 283 l7 207 188 0 189 0 0 103
c0 56 -3 119 -6 140 l-7 37 -182 0 -183 0 -7 175 -7 175 -178 0 -178 0 -7
-144z"/>
<path d="M4275 12524 c-66 -7 -140 -17 -165 -21 l-45 -9 -47 -139 -47 -140 27
-3 c15 -2 90 3 167 12 77 9 159 19 183 21 70 8 182 -13 247 -45 54 -26 135
-94 124 -104 -2 -2 -89 -18 -194 -35 -297 -49 -431 -98 -526 -193 -72 -72 -92
-134 -87 -278 3 -93 8 -125 26 -165 84 -185 336 -254 602 -166 l95 32 215 -30
c118 -17 216 -29 218 -27 1 2 4 190 5 417 3 560 -8 643 -95 726 -152 143 -359
186 -703 147z m405 -701 c0 -10 -7 -83 -15 -163 -8 -80 -15 -148 -15 -152 0
-5 -76 -8 -170 -8 -93 0 -170 3 -170 8 0 30 32 267 36 272 4 4 141 29 327 59
4 0 7 -7 7 -16z"/>
<path d="M7246 12519 c-259 -63 -452 -243 -511 -474 -20 -79 -20 -281 0 -359
67 -255 306 -438 622 -477 122 -14 245 -2 363 37 l77 26 32 156 c18 86 35 167
38 178 4 21 -8 18 -196 -42 -269 -85 -333 -85 -432 3 -95 86 -137 239 -106
394 19 99 65 196 111 237 24 21 52 33 98 42 90 16 187 -3 369 -75 78 -30 144
-54 146 -52 5 6 -33 302 -40 315 -12 18 -137 73 -213 92 -102 26 -250 26 -358
-1z"/>
<path d="M8030 11891 l0 -651 195 0 195 0 0 273 c0 151 3 348 7 439 l6 166 51
6 c28 3 127 8 220 12 l169 7 -7 121 c-3 66 -9 155 -12 197 l-6 76 -174 -63
-173 -62 -218 59 c-120 33 -226 62 -235 65 -17 5 -18 -30 -18 -645z"/>
<path d="M1483 12512 l-151 -15 -6 -116 c-4 -64 -9 -128 -11 -143 -5 -34 -7
-34 160 -13 269 34 418 9 530 -88 l39 -34 -194 -37 c-341 -65 -477 -111 -539
-181 -76 -87 -113 -220 -94 -338 24 -144 95 -242 218 -303 83 -40 167 -39 330
5 141 39 151 40 408 16 108 -10 200 -16 203 -13 3 3 6 187 7 409 2 349 -1 419
-16 514 -21 123 -34 151 -107 219 -60 56 -151 101 -246 121 -88 19 -325 17
-531 -3z m512 -724 c-3 -24 -10 -94 -15 -157 -5 -63 -11 -116 -13 -117 -5 -5
-331 -23 -336 -18 -6 6 21 268 30 284 5 11 44 20 136 31 70 9 145 17 165 18
l38 1 -5 -42z"/>
<path d="M2544 12513 c199 -656 267 -853 388 -1130 l40 -92 51 -15 c69 -20
298 -66 328 -66 27 0 45 41 220 512 73 198 269 767 269 783 0 7 -234 6 -321
-1 l-74 -7 -59 -201 c-33 -110 -86 -284 -119 -386 -57 -177 -60 -183 -71 -155
-7 17 -56 149 -109 295 -53 146 -109 297 -125 335 l-28 70 -180 37 c-210 44
-217 44 -210 21z"/>
<path d="M10445 12505 c-223 -43 -519 -43 -717 1 l-28 6 0 -861 0 -861 148 0
c81 0 171 -3 201 -7 l54 -6 -7 226 -6 227 180 0 c259 0 378 32 485 131 68 63
132 202 167 364 19 90 16 324 -5 410 -40 161 -135 291 -253 349 -69 34 -123
39 -219 21z m59 -427 c20 -173 21 -322 2 -403 -24 -101 -88 -139 -279 -164
-43 -6 -89 -14 -103 -17 l-24 -6 0 361 0 360 133 4 c72 1 159 4 193 5 l61 2
17 -142z"/>
<path d="M9028 12190 c-2 -176 -2 -461 0 -635 l4 -315 177 0 178 0 7 61 c3 34
6 292 6 574 0 282 -3 540 -6 574 l-7 61 -178 0 -178 0 -3 -320z"/>
</g>
</svg>
