<?xml version="1.0"?>
<svg xmlns="http://www.w3.org/2000/svg" xmlns:xlink="http://www.w3.org/1999/xlink" xmlns:svgjs="http://svgjs.com/svgjs" version="1.1" width="512" height="512" x="0" y="0" viewBox="0 0 64 64" style="enable-background:new 0 0 512 512" xml:space="preserve" class=""><g><g xmlns="http://www.w3.org/2000/svg" id="outline"><path d="m9 62h46v-60h-46zm2-58h42v56h-42z" fill="#0873ac" data-original="#000000" style="" class=""/><path d="m13 48h6v-6h-6zm2-4h2v2h-2z" fill="#0873ac" data-original="#000000" style="" class=""/><path d="m29 48h6v-6h-6zm2-4h2v2h-2z" fill="#0873ac" data-original="#000000" style="" class=""/><path d="m21 56h6v-6h-6zm2-4h2v2h-2z" fill="#0873ac" data-original="#000000" style="" class=""/><path d="m29 56h6v-6h-6zm2-4h2v2h-2z" fill="#0873ac" data-original="#000000" style="" class=""/><path d="m37 48h6v-6h-6zm2-4h2v2h-2z" fill="#0873ac" data-original="#000000" style="" class=""/><path d="m21 46h6v2h-6z" fill="#0873ac" data-original="#000000" style="" class=""/><path d="m13 54h6v2h-6z" fill="#0873ac" data-original="#000000" style="" class=""/><path d="m37 54h6v2h-6z" fill="#0873ac" data-original="#000000" style="" class=""/><path d="m45 54h6v2h-6z" fill="#0873ac" data-original="#000000" style="" class=""/><path d="m45 46h6v2h-6z" fill="#0873ac" data-original="#000000" style="" class=""/><path d="m40.707 29.293-3.707-3.707v-4.109l3.629 1.452.742-1.858-3.671-1.466a3.98 3.98 0 0 0 -.7-7.463v-4.142h-19v29h-5v2h13v-2h-6v-21.586l5.414-5.414h9.586v2.142a3.98 3.98 0 0 0 -.7 7.463l-3.667 1.466.742 1.858 3.625-1.452v4.109l-3.707 3.707 1.414 1.414 3.293-3.293 3.293 3.293zm-20.707-16.707v-2.586h2.586zm14 3.414a2 2 0 1 1 2 2 2 2 0 0 1 -2-2z" fill="#0873ac" data-original="#000000" style="" class=""/><path d="m45 8h4v6h2v-8h-6z" fill="#0873ac" data-original="#000000" style="" class=""/><path d="m49 16h2v2h-2z" fill="#0873ac" data-original="#000000" style="" class=""/><path d="m13 6h2v2h-2z" fill="#0873ac" data-original="#000000" style="" class=""/><path d="m13 10h2v2h-2z" fill="#0873ac" data-original="#000000" style="" class=""/></g></g></svg>
